<svg fill="none" height="260" viewBox="0 0 260 260" width="260" xmlns="http://www.w3.org/2000/svg" xmlns:xlink="http://www.w3.org/1999/xlink"><clipPath id="a"><rect height="260" rx="40" width="260"/></clipPath><g clip-path="url(#a)"><rect fill="#fcfcfc" height="260" rx="40" width="260"/><g clip-rule="evenodd" fill-rule="evenodd"><path d="m80.4432 158.756c5.7146.289 11.1184 1.569 15.9888 3.88 4.96 2.353 9.43 5.536 13.063 9.539 3.643 3.886 6.462 8.483 8.5 13.494 1.961 4.823 3.239 10.03 3.337 15.556.533 6.974-.975 13.558-3.515 19.59-2.722 6.459-7.109 11.927-12.436 16.42l-6.901 4.788-9.576-13.802 6.9008-4.787c3.952-2.224 7.5362-5.091 9.9932-8.934 2.487-3.889 4.192-8.355 4.567-13.275.073-4.071-.544-8.011-2.041-11.542-1.547-3.654-4.019-6.796-6.87-9.468-2.8433-2.58-6.2279-4.516-9.8988-5.831-3.4587-1.238-7.2176-1.697-11.112-1.5-11.9082.561-22.8587-3.981-30.9509-11.518-8.2667-7.7-13.2011-18.776-13.4923-30.951.2784-12.179 5.2006-23.272 13.472-30.9723 8.0965-7.5376 19.0608-12.0624 30.9717-11.4832 8.0283.3989 15.552-2.2657 21.0223-7.3334 2.862-2.6517 5.292-5.8384 6.8-9.5024 1.453-3.5312 1.962-7.4677 1.829-11.5189-.347-5.1221-2.14-9.7712-4.774-13.7813-2.606-3.9691-6.3797-6.943-10.5807-9.1291l-7.1184-4.4576 8.9157-14.2368 7.1184 4.4576c5.877 4.369 10.757 9.9323 13.843 16.5947 2.898 6.2554 4.602 13.1925 4.104 20.5525-.182 5.5509-1.529 10.7557-3.55 15.5813-2.089 4.9909-4.948 9.5494-8.57 13.4582-7.281 7.8586-17.5044 12.8427-29.0393 13.4167-7.6512.372-14.2459 4.065-19.088 9.266-4.6575 5.003-7.4458 11.722-7.2778 19.088-.176 7.371 2.5957 14.104 7.257 19.109 4.8432 5.2 11.4561 8.872 19.1083 9.232z" fill="#041e43" stroke="#041e43" stroke-width="8"/><path d="m119.067 150.133h-9.067l.001-18.133h9.066c13.601.965 25.834 5.173 34.907 12.014 7.702 5.808 13.173 13.053 15.652 21.092 1.133 3.676 1.823 7.453 1.631 11.366.489 7.273 4.732 13.513 10.99 18.246 8.089 6.118 19.813 9.042 32.51 8.092h9.067v18.133h-9.067c-13.595-.986-25.812-5.213-34.877-12.06-7.688-5.806-13.134-13.043-15.632-21.064-1.142-3.669-1.852-7.439-1.68-11.347-.506-7.267-4.773-13.475-11.029-18.203-8.084-6.109-19.785-9.066-32.472-8.136z" fill="#3ba4e1" stroke="#3ba4e1" stroke-width="6"/><path d="m137.134 117.154h-7.731l-.001-15.462h7.732c5.059.202 9.746-1.283 13.652-3.9045 1.804-1.2112 3.554-2.4517 5.043-4.0368 2.448-2.6069 4.81-5.3339 5.923-8.8747.472-1.504.762-3.0714.898-4.6992-.117-1.7648.014-3.4901.102-5.2026.393-7.5942 2.839-14.5904 7.475-20.1963 5.957-7.2027 15.333-11.1173 25.398-11.5792h7.731l.001 15.4629h-7.732c-5.832-.2586-11.151 1.7531-15.392 5.1216-1.146.9104-2.335 1.7254-3.351 2.7835-2.483 2.5851-4.834 5.3451-5.93 8.8997-.464 1.5051-.724 3.0822-.842 4.7104.132 1.7664.018 3.4928-.063 5.2086-.357 7.6069-2.829 14.6176-7.477 20.2276-5.966 7.202-15.364 11.103-25.436 11.541z" fill="#041e43" stroke="#041e43" stroke-width="6"/></g></g></svg>