<svg xmlns="http://www.w3.org/2000/svg" xmlns:xlink="http://www.w3.org/1999/xlink" width="1024" zoomAndPan="magnify" viewBox="0 0 768 767.999994" height="1024" preserveAspectRatio="xMidYMid meet" version="1.0"><defs><g/></defs><g fill="#ffffff" fill-opacity="1"><g transform="translate(164.151652, 400.546085)"><g><path d="M 70.46875 -63.96875 C 70.46875 -56.445312 67.890625 -50.195312 62.734375 -45.21875 C 57.585938 -40.25 49.738281 -37.765625 39.1875 -37.765625 L 21.796875 -37.765625 L 21.796875 0 L 9.984375 0 L 9.984375 -90.453125 L 39.1875 -90.453125 C 49.394531 -90.453125 57.160156 -87.984375 62.484375 -83.046875 C 67.804688 -78.117188 70.46875 -71.757812 70.46875 -63.96875 Z M 39.1875 -47.5 C 45.757812 -47.5 50.601562 -48.925781 53.71875 -51.78125 C 56.832031 -54.632812 58.390625 -58.695312 58.390625 -63.96875 C 58.390625 -75.132812 51.988281 -80.71875 39.1875 -80.71875 L 21.796875 -80.71875 L 21.796875 -47.5 Z M 39.1875 -47.5 "/></g></g></g><g fill="#ffffff" fill-opacity="1"><g transform="translate(244.993857, 400.546085)"><g><path d="M 63.453125 -20.109375 L 24 -20.109375 L 16.734375 0 L 4.28125 0 L 36.984375 -89.921875 L 50.609375 -89.921875 L 83.1875 0 L 70.71875 0 Z M 60.078125 -29.71875 L 43.734375 -75.390625 L 27.375 -29.71875 Z M 60.078125 -29.71875 "/></g></g></g><g fill="#ffffff" fill-opacity="1"><g transform="translate(338.163431, 400.546085)"><g><path d="M 57.609375 0 L 36.078125 -36.984375 L 21.796875 -36.984375 L 21.796875 0 L 9.984375 0 L 9.984375 -90.453125 L 39.1875 -90.453125 C 46.019531 -90.453125 51.789062 -89.28125 56.5 -86.9375 C 61.21875 -84.601562 64.742188 -81.445312 67.078125 -77.46875 C 69.421875 -73.488281 70.59375 -68.945312 70.59375 -63.84375 C 70.59375 -57.613281 68.796875 -52.117188 65.203125 -47.359375 C 61.617188 -42.609375 56.234375 -39.453125 49.046875 -37.890625 L 71.765625 0 Z M 21.796875 -46.453125 L 39.1875 -46.453125 C 45.59375 -46.453125 50.394531 -48.03125 53.59375 -51.1875 C 56.789062 -54.34375 58.390625 -58.5625 58.390625 -63.84375 C 58.390625 -69.207031 56.8125 -73.359375 53.65625 -76.296875 C 50.5 -79.242188 45.675781 -80.71875 39.1875 -80.71875 L 21.796875 -80.71875 Z M 21.796875 -46.453125 "/></g></g></g><g fill="#ffffff" fill-opacity="1"><g transform="translate(422.768728, 400.546085)"><g><path d="M 65.65625 -90.453125 L 65.65625 -80.84375 L 41 -80.84375 L 41 0 L 29.203125 0 L 29.203125 -80.84375 L 4.40625 -80.84375 L 4.40625 -90.453125 Z M 65.65625 -90.453125 "/></g></g></g><g fill="#ffffff" fill-opacity="1"><g transform="translate(498.679994, 400.546085)"><g><path d="M 79.671875 -90.453125 L 79.671875 0 L 67.875 0 L 67.875 -41 L 21.796875 -41 L 21.796875 0 L 9.984375 0 L 9.984375 -90.453125 L 21.796875 -90.453125 L 21.796875 -50.734375 L 67.875 -50.734375 L 67.875 -90.453125 Z M 79.671875 -90.453125 "/></g></g></g><g fill="#ffffff" fill-opacity="1"><g transform="translate(128.081341, 530.296079)"><g/></g></g><g fill="#ffffff" fill-opacity="1"><g transform="translate(168.428995, 530.296079)"><g><path d="M 101.734375 -89.796875 L 101.734375 0 L 89.921875 0 L 89.921875 -66.953125 L 60.078125 0 L 51.78125 0 L 21.796875 -67.09375 L 21.796875 0 L 9.984375 0 L 9.984375 -89.796875 L 22.703125 -89.796875 L 55.921875 -15.578125 L 89.15625 -89.796875 Z M 101.734375 -89.796875 "/></g></g></g><g fill="#ffffff" fill-opacity="1"><g transform="translate(285.864002, 530.296079)"><g><path d="M 21.796875 -90.453125 L 21.796875 0 L 9.984375 0 L 9.984375 -90.453125 Z M 21.796875 -90.453125 "/></g></g></g><g fill="#ffffff" fill-opacity="1"><g transform="translate(323.495573, 530.296079)"><g><path d="M 65.65625 -90.453125 L 65.65625 -80.84375 L 41 -80.84375 L 41 0 L 29.203125 0 L 29.203125 -80.84375 L 4.40625 -80.84375 L 4.40625 -90.453125 Z M 65.65625 -90.453125 "/></g></g></g><g fill="#ffffff" fill-opacity="1"><g transform="translate(399.406828, 530.296079)"><g><path d="M 65.65625 -90.453125 L 65.65625 -80.84375 L 41 -80.84375 L 41 0 L 29.203125 0 L 29.203125 -80.84375 L 4.40625 -80.84375 L 4.40625 -90.453125 Z M 65.65625 -90.453125 "/></g></g></g><g fill="#ffffff" fill-opacity="1"><g transform="translate(475.318095, 530.296079)"><g><path d="M 63.453125 -20.109375 L 24 -20.109375 L 16.734375 0 L 4.28125 0 L 36.984375 -89.921875 L 50.609375 -89.921875 L 83.1875 0 L 70.71875 0 Z M 60.078125 -29.71875 L 43.734375 -75.390625 L 27.375 -29.71875 Z M 60.078125 -29.71875 "/></g></g></g><g fill="#ffffff" fill-opacity="1"><g transform="translate(568.487691, 530.296079)"><g><path d="M 21.796875 -9.609375 L 53.46875 -9.609375 L 53.46875 0 L 9.984375 0 L 9.984375 -90.453125 L 21.796875 -90.453125 Z M 21.796875 -9.609375 "/></g></g></g><g fill="#1aede6" fill-opacity="1"><g transform="translate(26.214175, 532.429038)"><g><path d="M 31.234375 -121.65625 C 51.460938 -125.425781 61.578125 -135.835938 61.578125 -152.890625 C 61.578125 -160.421875 60.582031 -173.3125 58.59375 -191.5625 C 56.613281 -210.988281 55.625 -225.066406 55.625 -233.796875 C 55.625 -248.078125 59.640625 -258.984375 67.671875 -266.515625 C 75.703125 -274.054688 86.457031 -277.828125 99.9375 -277.828125 L 117.203125 -277.828125 L 117.203125 -254.328125 L 105 -254.328125 C 97.269531 -254.328125 91.519531 -252.585938 87.75 -249.109375 C 83.976562 -245.640625 82.09375 -239.941406 82.09375 -232.015625 C 82.09375 -226.265625 82.488281 -219.175781 83.28125 -210.75 C 84.082031 -202.320312 84.582031 -196.617188 84.78125 -193.640625 C 86.757812 -174.609375 87.75 -160.726562 87.75 -152 C 87.75 -141.488281 85.117188 -132.710938 79.859375 -125.671875 C 74.609375 -118.628906 66.53125 -113.921875 55.625 -111.546875 L 55.625 -110.953125 C 66.53125 -108.566406 74.609375 -103.804688 79.859375 -96.671875 C 85.117188 -89.535156 87.75 -80.710938 87.75 -70.203125 C 87.75 -61.472656 86.757812 -47.59375 84.78125 -28.5625 C 84.582031 -25.582031 84.082031 -19.878906 83.28125 -11.453125 C 82.488281 -3.023438 82.09375 4.0625 82.09375 9.8125 C 82.09375 17.75 83.976562 23.453125 87.75 26.921875 C 91.519531 30.390625 97.269531 32.125 105 32.125 L 117.203125 32.125 L 117.203125 55.625 L 99.9375 55.625 C 86.457031 55.625 75.703125 51.851562 67.671875 44.3125 C 59.640625 36.78125 55.625 25.875 55.625 11.59375 C 55.625 2.875 56.613281 -11.203125 58.59375 -30.640625 C 60.582031 -48.878906 61.578125 -61.769531 61.578125 -69.3125 C 61.578125 -86.363281 51.460938 -96.773438 31.234375 -100.546875 Z M 31.234375 -121.65625 "/></g></g></g><g fill="#1aede6" fill-opacity="1"><g transform="translate(612.330213, 536.009965)"><g><path d="M 106.921875 -101.234375 C 86.554688 -97.441406 76.375 -86.957031 76.375 -69.78125 C 76.375 -62.195312 77.375 -49.21875 79.375 -30.84375 C 81.363281 -11.28125 82.359375 2.894531 82.359375 11.6875 C 82.359375 26.0625 78.316406 37.039062 70.234375 44.625 C 62.148438 52.207031 51.316406 56 37.734375 56 L 20.359375 56 L 20.359375 32.34375 L 32.640625 32.34375 C 40.429688 32.34375 46.222656 30.59375 50.015625 27.09375 C 53.804688 23.601562 55.703125 17.867188 55.703125 9.890625 C 55.703125 4.097656 55.300781 -3.039062 54.5 -11.53125 C 53.707031 -20.019531 53.210938 -25.757812 53.015625 -28.75 C 51.015625 -47.914062 50.015625 -61.894531 50.015625 -70.6875 C 50.015625 -81.269531 52.660156 -90.15625 57.953125 -97.34375 C 63.242188 -104.53125 71.378906 -109.320312 82.359375 -111.71875 L 82.359375 -112.3125 C 71.378906 -114.707031 63.242188 -119.445312 57.953125 -126.53125 C 52.660156 -133.625 50.015625 -142.460938 50.015625 -153.046875 C 50.015625 -161.828125 51.015625 -175.800781 53.015625 -194.96875 C 53.210938 -197.96875 53.707031 -203.707031 54.5 -212.1875 C 55.300781 -220.675781 55.703125 -227.816406 55.703125 -233.609375 C 55.703125 -241.597656 53.804688 -247.335938 50.015625 -250.828125 C 46.222656 -254.328125 40.429688 -256.078125 32.640625 -256.078125 L 20.359375 -256.078125 L 20.359375 -279.734375 L 37.734375 -279.734375 C 51.316406 -279.734375 62.148438 -275.9375 70.234375 -268.34375 C 78.316406 -260.757812 82.359375 -249.78125 82.359375 -235.40625 C 82.359375 -226.625 81.363281 -212.445312 79.375 -192.875 C 77.375 -174.507812 76.375 -161.53125 76.375 -153.9375 C 76.375 -136.769531 86.554688 -126.289062 106.921875 -122.5 Z M 106.921875 -101.234375 "/></g></g></g></svg>