<?xml version="1.0" encoding="UTF-8" standalone="no"?>
<svg
   width="1024"
   zoomAndPan="magnify"
   viewBox="0 0 768 767.999994"
   height="1024"
   preserveAspectRatio="xMidYMid meet"
   version="1.0"
   id="svg43"
   sodipodi:docname="pavanl.svg"
   inkscape:version="1.4 (86a8ad7, 2024-10-11)"
   xmlns:inkscape="http://www.inkscape.org/namespaces/inkscape"
   xmlns:sodipodi="http://sodipodi.sourceforge.net/DTD/sodipodi-0.dtd"
   xmlns:xlink="http://www.w3.org/1999/xlink"
   xmlns="http://www.w3.org/2000/svg"
   xmlns:svg="http://www.w3.org/2000/svg">
  <sodipodi:namedview
     id="namedview43"
     pagecolor="#ffffff"
     bordercolor="#000000"
     borderopacity="0.25"
     inkscape:showpageshadow="2"
     inkscape:pageopacity="0.0"
     inkscape:pagecheckerboard="0"
     inkscape:deskcolor="#d1d1d1"
     showgrid="true"
     inkscape:zoom="0.79589844"
     inkscape:cx="510.74356"
     inkscape:cy="557.2319"
     inkscape:window-width="1920"
     inkscape:window-height="1017"
     inkscape:window-x="-8"
     inkscape:window-y="-8"
     inkscape:window-maximized="1"
     inkscape:current-layer="svg43">
    <inkscape:grid
       id="grid52"
       units="px"
       originx="0"
       originy="0"
       spacingx="0.75"
       spacingy="0.74999999"
       empcolor="#0099e5"
       empopacity="0.30196078"
       color="#0099e5"
       opacity="0.14901961"
       empspacing="5"
       enabled="true"
       visible="true" />
  </sodipodi:namedview>
  <defs
     id="defs1">
    <linearGradient
       id="swatch53"
       inkscape:swatch="solid">
      <stop
         style="stop-color:#1aede6;stop-opacity:1;"
         offset="0"
         id="stop53" />
    </linearGradient>
    <g
       id="g1" />
    <linearGradient
       inkscape:collect="always"
       xlink:href="#swatch53"
       id="linearGradient53"
       x1="31.234375"
       y1="-111.10156"
       x2="117.20312"
       y2="-111.10156"
       gradientUnits="userSpaceOnUse" />
  </defs>
  <g
     fill="#1aede6"
     fill-opacity="1"
     id="g40">
    <g
       transform="translate(26.214175, 532.429038)"
       id="g39">
      <g
         id="g38">
        <path
           d="M 31.234375 -121.65625 C 51.460938 -125.425781 61.578125 -135.835938 61.578125 -152.890625 C 61.578125 -160.421875 60.582031 -173.3125 58.59375  -191.5625 C 56.613281 -210.988281 55.625 -225.066406 55.625 -233.796875 C 55.625 -248.078125 59.640625 -258.984375 67.671875 -266.515625 C 75.703125 -274.054688 86.457031 -277.828125 99.9375  -277.828125 L 117.203125 -277.828125 L 117.203125 -254.328125 L 105 -254.328125 C 97.269531 -254.328125 91.519531 -252.585938 87.75 -249.109375 C 83.976562 -245.640625 82.09375 -239.941406 82.09375  -232.015625 C 82.09375 -226.265625 82.488281 -219.175781 83.28125 -210.75 C 84.082031 -202.320312 84.582031 -196.617188 84.78125 -193.640625 C 86.757812 -174.609375 87.75 -160.726562 87.75 -152 C 87.75  -141.488281 85.117188 -132.710938 79.859375 -125.671875 C 74.609375 -118.628906 66.53125 -113.921875 55.625 -111.546875 L 55.625 -110.953125 C 66.53125 -108.566406 74.609375 -103.804688 79.859375 -96.671875 C 85.117188  -89.535156 87.75 -80.710938 87.75 -70.203125 C 87.75 -61.472656 86.757812 -47.59375 84.78125 -28.5625 C 84.582031 -25.582031 84.082031 -19.878906 83.28125 -11.453125 C 82.488281 -3.023438 82.09375 4.0625 82.09375  9.8125 C 82.09375 17.75 83.976562 23.453125 87.75 26.921875 C 91.519531 30.390625 97.269531 32.125 105 32.125 L 117.203125 32.125 L 117.203125 55.625 L 99.9375 55.625 C 86.457031 55.625 75.703125 51.851562  67.671875 44.3125 C 59.640625 36.78125 55.625 25.875 55.625 11.59375 C 55.625 2.875 56.613281 -11.203125 58.59375 -30.640625 C 60.582031 -48.878906 61.578125 -61.769531 61.578125 -69.3125 C 61.578125 -86.363281 51.460938  -96.773438 31.234375 -100.546875 Z M 31.234375 -121.65625 "
           id="path37"
           style="stroke-width:0.99975;stroke-dasharray:none;fill:url(#linearGradient53);fill-rule:evenodd" />
      </g>
    </g>
  </g>
  <text
     xml:space="preserve"
     style="font-size:125px;line-height:39.1;text-align:start;letter-spacing:0px;word-spacing:0px;writing-mode:lr-tb;direction:ltr;text-anchor:start;fill:#ffffff;stroke-width:0.75;fill-opacity:1"
     x="164.90797"
     y="411.79877"
     id="text50"><tspan
       sodipodi:role="line"
       id="tspan50"
       style="stroke-width:0.75;fill:#ffffff;fill-opacity:1"
       x="164.90797"
       y="411.79877">PAVAN</tspan></text>
  <text
     xml:space="preserve"
     style="font-size:125px;line-height:39.1;text-align:start;letter-spacing:0px;word-spacing:0px;writing-mode:lr-tb;direction:ltr;text-anchor:start;mix-blend-mode:normal;fill:#ffffff;stroke-width:0.75;opacity:1;fill-opacity:1"
     x="168.67731"
     y="534.30188"
     id="text52"><tspan
       sodipodi:role="line"
       id="tspan52"
       style="stroke-width:0.75;fill:#ffffff;fill-opacity:1"
       x="168.67731"
       y="534.30188">LAKKU</tspan></text>
  <g
     fill="#1aede6"
     fill-opacity="1"
     id="g43">
    <g
       transform="translate(612.330213, 536.009965)"
       id="g42">
      <g
         id="g41">
        <path
           d="M 106.921875 -101.234375 C 86.554688  -97.441406 76.375 -86.957031 76.375 -69.78125 C 76.375 -62.195312 77.375 -49.21875 79.375 -30.84375 C 81.363281 -11.28125 82.359375 2.894531 82.359375 11.6875 C 82.359375 26.0625 78.316406 37.039062 70.234375  44.625 C 62.148438 52.207031 51.316406 56 37.734375 56 L 20.359375 56 L 20.359375 32.34375 L 32.640625 32.34375 C 40.429688 32.34375 46.222656 30.59375 50.015625 27.09375 C 53.804688 23.601562 55.703125 17.867188  55.703125 9.890625 C 55.703125 4.097656 55.300781 -3.039062 54.5 -11.53125 C 53.707031 -20.019531 53.210938 -25.757812 53.015625 -28.75 C 51.015625 -47.914062 50.015625 -61.894531 50.015625 -70.6875 C 50.015625  -81.269531 52.660156 -90.15625 57.953125 -97.34375 C 63.242188 -104.53125 71.378906 -109.320312 82.359375 -111.71875 L 82.359375 -112.3125 C 71.378906 -114.707031 63.242188 -119.445312 57.953125 -126.53125 C 52.660156  -133.625 50.015625 -142.460938 50.015625 -153.046875 C 50.015625 -161.828125 51.015625 -175.800781 53.015625 -194.96875 C 53.210938 -197.96875 53.707031 -203.707031 54.5 -212.1875 C 55.300781 -220.675781 55.703125  -227.816406 55.703125 -233.609375 C 55.703125 -241.597656 53.804688 -247.335938 50.015625 -250.828125 C 46.222656 -254.328125 40.429688 -256.078125 32.640625 -256.078125 L 20.359375 -256.078125 L 20.359375  -279.734375 L 37.734375 -279.734375 C 51.316406 -279.734375 62.148438 -275.9375 70.234375 -268.34375 C 78.316406 -260.757812 82.359375 -249.78125 82.359375 -235.40625 C 82.359375 -226.625 81.363281 -212.445312  79.375 -192.875 C 77.375 -174.507812 76.375 -161.53125 76.375 -153.9375 C 76.375 -136.769531 86.554688 -126.289062 106.921875 -122.5 Z M 106.921875 -101.234375 "
           id="path40" />
      </g>
    </g>
  </g>
</svg>
