<svg xmlns="http://www.w3.org/2000/svg" viewBox="0 0 100 100"><defs><style>.cls-1,.cls-2{fill:#ed6a5e;}.cls-1{opacity:0.25;}</style></defs><title>place-icon</title><g id="Layer_2" data-name="Layer 2"><g id="Layer_1-2" data-name="Layer 1"><circle class="cls-1" cx="50" cy="50" r="50"/><path class="cls-2" d="M64.08,40.94H36c-1.15,0-1.43.29-1.44,1.43,0,1,0,1.93,0,2.89,0,1.22.26,1.49,1.46,1.49h11.1V67.09c-.94,0-1.79,0-2.65,0s-1.18.34-1.2,1.14c0,1.16,0,2.33,0,3.49,0,.81.37,1.16,1.18,1.16,3.72,0,7.45,0,11.17,0,.87,0,1.18-.33,1.2-1.21q0-1.64,0-3.27c0-1-.3-1.32-1.38-1.33-.8,0-1.61,0-2.43,0V46.75H64.18c1,0,1.32-.32,1.34-1.31s0-2,0-3S65.22,40.94,64.08,40.94ZM54.79,69.08v1.83H45.22V69.08Zm-5.69-2V46.78h1.81V67.05ZM63.53,44.74h-27V42.93h27Z"/><path class="cls-2" d="M78.79,71.84Q77.14,66,75.47,60.23a.86.86,0,0,1,.33-1.08,4.29,4.29,0,0,0,1.67-3c.46-4,.93-8,1.32-12A2.85,2.85,0,0,0,76.22,41,2.94,2.94,0,0,0,73,43.57c-.27,1.8-.52,3.61-.78,5.41s-.52,3.64-.79,5.51H69.11c-1.52,0-3,0-4.56,0a2.87,2.87,0,0,0-2.8,2.15,2.78,2.78,0,0,0,1.36,3.24.84.84,0,0,1,.46.91V72.86h2V60.38a1.51,1.51,0,0,1,.31-.07c2.4,0,4.81,0,7.21,0,.19,0,.48.32.54.54.63,2.08,1.22,4.17,1.82,6.27s1.15,4,1.74,6.07L79,72.64C78.92,72.32,78.86,72.08,78.79,71.84Zm-6.3-13.47c-1.27,0-2.54,0-3.8,0H65c-1,0-1.44-.32-1.45-1s.47-1,1.42-1h6.84c1.07,0,1.31-.22,1.46-1.3l1.53-10.75.09-.53c.14-.69.57-1,1.15-.93a1,1,0,0,1,.78,1.18c-.11,1.21-.25,2.42-.38,3.63-.3,2.62-.59,5.23-.89,7.85A2.89,2.89,0,0,1,72.49,58.37Z"/><path class="cls-2" d="M38.32,56.78a2.88,2.88,0,0,0-2.42-2.23,9.08,9.08,0,0,0-1.28,0h-6c-.06-.34-.11-.61-.15-.88C28,50.2,27.5,46.79,27,43.38A2.84,2.84,0,0,0,23.7,41a2.93,2.93,0,0,0-2.49,3.28c.42,3.85.87,7.7,1.29,11.55a4.76,4.76,0,0,0,1.81,3.38.72.72,0,0,1,.28.9c-.68,2.29-1.33,4.57-2,6.86-.53,1.87-1.06,3.74-1.61,5.66l1.84.52c.1-.34.2-.62.28-.91,1.08-3.77,2.15-7.55,3.23-11.31.1-.36.13-.7.7-.68,2.21.05,4.41,0,6.61,0l.89,0V72.87h1.92v-1c0-3.67,0-7.35,0-11a1,1,0,0,1,.54-1A2.81,2.81,0,0,0,38.32,56.78Zm-2,.86a1.5,1.5,0,0,1-1,.7c-1.36.08-2.74,0-4.1,0h0c-1.24,0-2.48,0-3.73,0a2.83,2.83,0,0,1-3.05-2.65c-.44-3.5-.8-7-1.19-10.5,0-.38-.1-.75-.12-1.13A1,1,0,0,1,24,42.92c.57-.11,1,.27,1.12,1q.56,3.75,1.08,7.51c.18,1.25.35,2.51.55,3.76s.38,1.28,1.48,1.28c2.3,0,4.61,0,6.91,0a1.35,1.35,0,0,1,.92.23C36.25,56.91,36.46,57.44,36.35,57.64Z"/><path class="cls-2" d="M55.34,26.5c-1-1-1.9-2.05-3-2.94a3.71,3.71,0,0,1-1.43-3.41c.13-1.75,0-3.52,0-5.32H49v.85c0,1.93,0,3.85,0,5.77a2,2,0,0,1-.49,1.18c-1.24,1.3-2.55,2.53-3.78,3.84a1.79,1.79,0,0,0-.42,1.26c.07.55.64.62,1.15.62,3,0,6.07,0,9.11,0a1.64,1.64,0,0,0,1.11-.56C56,27.3,55.71,26.86,55.34,26.5Zm-7.64-.15,2.36-2.18,2.3,2.18Z"/></g></g></svg>